<mxfile host="app.diagrams.net" modified="2020-09-11T13:25:32.671Z" agent="5.0 (Windows NT 10.0; Win64; x64) AppleWebKit/537.36 (KHTML, like Gecko) Chrome/79.0.3945.117 Safari/537.36" etag="u5oDgBl-hTgsSKjO1eMA" version="13.6.9" type="github">
  <diagram id="_38OMIWXt7H9RE7dVZdC" name="Page-1">
    <mxGraphModel dx="1422" dy="1894" grid="1" gridSize="10" guides="1" tooltips="1" connect="1" arrows="1" fold="1" page="1" pageScale="1" pageWidth="850" pageHeight="1100" math="0" shadow="0">
      <root>
        <mxCell id="0" />
        <mxCell id="1" parent="0" />
        <mxCell id="c1YBvzrRhg0FDO1bEwd2-1" value="Classname" style="swimlane;fontStyle=1;align=center;verticalAlign=top;childLayout=stackLayout;horizontal=1;startSize=26;horizontalStack=0;resizeParent=1;resizeParentMax=0;resizeLast=0;collapsible=1;marginBottom=0;" parent="1" vertex="1">
          <mxGeometry x="440" y="140" width="160" height="86" as="geometry" />
        </mxCell>
        <mxCell id="c1YBvzrRhg0FDO1bEwd2-2" value="+ field: type" style="text;strokeColor=none;fillColor=none;align=left;verticalAlign=top;spacingLeft=4;spacingRight=4;overflow=hidden;rotatable=0;points=[[0,0.5],[1,0.5]];portConstraint=eastwest;" parent="c1YBvzrRhg0FDO1bEwd2-1" vertex="1">
          <mxGeometry y="26" width="160" height="26" as="geometry" />
        </mxCell>
        <mxCell id="c1YBvzrRhg0FDO1bEwd2-3" value="" style="line;strokeWidth=1;fillColor=none;align=left;verticalAlign=middle;spacingTop=-1;spacingLeft=3;spacingRight=3;rotatable=0;labelPosition=right;points=[];portConstraint=eastwest;" parent="c1YBvzrRhg0FDO1bEwd2-1" vertex="1">
          <mxGeometry y="52" width="160" height="8" as="geometry" />
        </mxCell>
        <mxCell id="c1YBvzrRhg0FDO1bEwd2-4" value="+ method(type): type" style="text;strokeColor=none;fillColor=none;align=left;verticalAlign=top;spacingLeft=4;spacingRight=4;overflow=hidden;rotatable=0;points=[[0,0.5],[1,0.5]];portConstraint=eastwest;" parent="c1YBvzrRhg0FDO1bEwd2-1" vertex="1">
          <mxGeometry y="60" width="160" height="26" as="geometry" />
        </mxCell>
        <mxCell id="c1YBvzrRhg0FDO1bEwd2-5" value="Object" style="html=1;" parent="1" vertex="1">
          <mxGeometry x="80" y="260" width="110" height="50" as="geometry" />
        </mxCell>
        <mxCell id="c1YBvzrRhg0FDO1bEwd2-6" value="Survival&#xa;Player&#xa;Building&#xa;Environment&#xa;Food&#xa;Crafting&#xa;Mining&#xa;Enemies&#xa;Challenges&#xa;Starting game&#xa;Night day differences" style="text;align=center;fontStyle=1;verticalAlign=middle;spacingLeft=3;spacingRight=3;strokeColor=none;rotatable=0;points=[[0,0.5],[1,0.5]];portConstraint=eastwest;" parent="1" vertex="1">
          <mxGeometry x="345" y="310" width="80" height="26" as="geometry" />
        </mxCell>
        <mxCell id="c1YBvzrRhg0FDO1bEwd2-7" value="Player&#xa;Surviving&#xa;Food&#xa;Building&#xa;" style="text;align=center;fontStyle=1;verticalAlign=middle;spacingLeft=3;spacingRight=3;strokeColor=none;rotatable=0;points=[[0,0.5],[1,0.5]];portConstraint=eastwest;" parent="1" vertex="1">
          <mxGeometry x="450" y="310" width="80" height="26" as="geometry" />
        </mxCell>
        <mxCell id="c1YBvzrRhg0FDO1bEwd2-8" value="Player thing that controls the game&#xa;Health&#xa;Food&#xa;Inventory" style="text;align=center;fontStyle=1;verticalAlign=middle;spacingLeft=3;spacingRight=3;strokeColor=none;rotatable=0;points=[[0,0.5],[1,0.5]];portConstraint=eastwest;" parent="1" vertex="1">
          <mxGeometry x="560" y="430" width="80" height="26" as="geometry" />
        </mxCell>
        <mxCell id="c1YBvzrRhg0FDO1bEwd2-9" value="Inventory" style="swimlane;fontStyle=1;align=center;verticalAlign=top;childLayout=stackLayout;horizontal=1;startSize=26;horizontalStack=0;resizeParent=1;resizeParentMax=0;resizeLast=0;collapsible=1;marginBottom=0;" parent="1" vertex="1">
          <mxGeometry x="640" y="120" width="160" height="170" as="geometry" />
        </mxCell>
        <mxCell id="c1YBvzrRhg0FDO1bEwd2-10" value="capacity: number&#xa;sock: number&#xa;items:&#xa;" style="text;strokeColor=none;fillColor=none;align=left;verticalAlign=top;spacingLeft=4;spacingRight=4;overflow=hidden;rotatable=0;points=[[0,0.5],[1,0.5]];portConstraint=eastwest;" parent="c1YBvzrRhg0FDO1bEwd2-9" vertex="1">
          <mxGeometry y="26" width="160" height="54" as="geometry" />
        </mxCell>
        <mxCell id="c1YBvzrRhg0FDO1bEwd2-11" value="" style="line;strokeWidth=1;fillColor=none;align=left;verticalAlign=middle;spacingTop=-1;spacingLeft=3;spacingRight=3;rotatable=0;labelPosition=right;points=[];portConstraint=eastwest;" parent="c1YBvzrRhg0FDO1bEwd2-9" vertex="1">
          <mxGeometry y="80" width="160" height="8" as="geometry" />
        </mxCell>
        <mxCell id="c1YBvzrRhg0FDO1bEwd2-12" value="insert(thingToInsert : string) &#xa;remove : thingRemoved&#xa;empty() : thingsEmptied&#xa;empty(invetoryToGoTo)&#xa;" style="text;strokeColor=none;fillColor=none;align=left;verticalAlign=top;spacingLeft=4;spacingRight=4;overflow=hidden;rotatable=0;points=[[0,0.5],[1,0.5]];portConstraint=eastwest;" parent="c1YBvzrRhg0FDO1bEwd2-9" vertex="1">
          <mxGeometry y="88" width="160" height="82" as="geometry" />
        </mxCell>
        <mxCell id="fV77j_MeTy0e_qj4ae1h-3" style="edgeStyle=orthogonalEdgeStyle;rounded=0;orthogonalLoop=1;jettySize=auto;html=1;exitX=0.5;exitY=1;exitDx=0;exitDy=0;" parent="1" source="fV77j_MeTy0e_qj4ae1h-1" target="fV77j_MeTy0e_qj4ae1h-2" edge="1">
          <mxGeometry relative="1" as="geometry" />
        </mxCell>
        <mxCell id="fV77j_MeTy0e_qj4ae1h-1" value="start" style="rounded=1;whiteSpace=wrap;html=1;" parent="1" vertex="1">
          <mxGeometry x="920" y="130" width="120" height="60" as="geometry" />
        </mxCell>
        <mxCell id="fV77j_MeTy0e_qj4ae1h-6" value="yes" style="edgeStyle=orthogonalEdgeStyle;rounded=0;orthogonalLoop=1;jettySize=auto;html=1;exitX=0;exitY=0.5;exitDx=0;exitDy=0;" parent="1" source="fV77j_MeTy0e_qj4ae1h-2" target="fV77j_MeTy0e_qj4ae1h-5" edge="1">
          <mxGeometry relative="1" as="geometry" />
        </mxCell>
        <mxCell id="fV77j_MeTy0e_qj4ae1h-8" value="no" style="edgeStyle=orthogonalEdgeStyle;rounded=0;orthogonalLoop=1;jettySize=auto;html=1;exitX=1;exitY=0.5;exitDx=0;exitDy=0;" parent="1" source="fV77j_MeTy0e_qj4ae1h-2" target="fV77j_MeTy0e_qj4ae1h-7" edge="1">
          <mxGeometry relative="1" as="geometry" />
        </mxCell>
        <mxCell id="fV77j_MeTy0e_qj4ae1h-2" value="?" style="rhombus;whiteSpace=wrap;html=1;" parent="1" vertex="1">
          <mxGeometry x="940" y="256" width="80" height="80" as="geometry" />
        </mxCell>
        <mxCell id="fV77j_MeTy0e_qj4ae1h-10" style="edgeStyle=orthogonalEdgeStyle;rounded=0;orthogonalLoop=1;jettySize=auto;html=1;exitX=0.5;exitY=1;exitDx=0;exitDy=0;" parent="1" source="fV77j_MeTy0e_qj4ae1h-5" target="fV77j_MeTy0e_qj4ae1h-9" edge="1">
          <mxGeometry relative="1" as="geometry" />
        </mxCell>
        <mxCell id="fV77j_MeTy0e_qj4ae1h-5" value="" style="rounded=0;whiteSpace=wrap;html=1;" parent="1" vertex="1">
          <mxGeometry x="800" y="370" width="120" height="60" as="geometry" />
        </mxCell>
        <mxCell id="fV77j_MeTy0e_qj4ae1h-11" style="edgeStyle=orthogonalEdgeStyle;rounded=0;orthogonalLoop=1;jettySize=auto;html=1;exitX=0.5;exitY=1;exitDx=0;exitDy=0;" parent="1" source="fV77j_MeTy0e_qj4ae1h-7" target="fV77j_MeTy0e_qj4ae1h-9" edge="1">
          <mxGeometry relative="1" as="geometry" />
        </mxCell>
        <mxCell id="fV77j_MeTy0e_qj4ae1h-7" value="" style="rounded=0;whiteSpace=wrap;html=1;" parent="1" vertex="1">
          <mxGeometry x="1060" y="370" width="120" height="60" as="geometry" />
        </mxCell>
        <mxCell id="fV77j_MeTy0e_qj4ae1h-9" value="start" style="rounded=1;whiteSpace=wrap;html=1;" parent="1" vertex="1">
          <mxGeometry x="940" y="490" width="120" height="60" as="geometry" />
        </mxCell>
        <mxCell id="_4K1MjJ3_qHQkmQHoh8G-1" value="Groceries&lt;br&gt;milk (gal)&lt;br&gt;eggs (2 dozen)&lt;br&gt;bread (1 loaf)&lt;br&gt;cookies (a lot)&amp;nbsp;" style="text;html=1;align=center;verticalAlign=middle;resizable=0;points=[];autosize=1;" parent="1" vertex="1">
          <mxGeometry x="1210" y="110" width="100" height="80" as="geometry" />
        </mxCell>
        <mxCell id="_4K1MjJ3_qHQkmQHoh8G-2" value="linked list&lt;br&gt;singly linked list&lt;br&gt;doubly linked list" style="text;html=1;align=center;verticalAlign=middle;resizable=0;points=[];autosize=1;" parent="1" vertex="1">
          <mxGeometry x="1210" y="210" width="100" height="50" as="geometry" />
        </mxCell>
        <mxCell id="_4K1MjJ3_qHQkmQHoh8G-3" value="Groceries&lt;br&gt;1 milk&lt;br&gt;2 eggs&lt;br&gt;3 bread&lt;br&gt;4 cookies" style="text;html=1;align=center;verticalAlign=middle;resizable=0;points=[];autosize=1;" parent="1" vertex="1">
          <mxGeometry x="1365" y="70" width="70" height="80" as="geometry" />
        </mxCell>
        <mxCell id="6JYLYx4JHXWrA2m5877R-1" value="Data + Meaning = Information" style="text;html=1;align=center;verticalAlign=middle;resizable=0;points=[];autosize=1;" parent="1" vertex="1">
          <mxGeometry x="1210" y="390" width="170" height="20" as="geometry" />
        </mxCell>
        <mxCell id="6JYLYx4JHXWrA2m5877R-2" value="121595" style="text;html=1;align=center;verticalAlign=middle;resizable=0;points=[];autosize=1;" parent="1" vertex="1">
          <mxGeometry x="1240" y="410" width="60" height="20" as="geometry" />
        </mxCell>
        <mxCell id="soqQz1_LplRIS5dkgfLs-1" value="list" style="text;html=1;align=center;verticalAlign=middle;resizable=0;points=[];autosize=1;" parent="1" vertex="1">
          <mxGeometry x="1235" y="60" width="30" height="20" as="geometry" />
        </mxCell>
        <mxCell id="soqQz1_LplRIS5dkgfLs-2" value="array" style="text;html=1;align=center;verticalAlign=middle;resizable=0;points=[];autosize=1;" parent="1" vertex="1">
          <mxGeometry x="1380" y="40" width="40" height="20" as="geometry" />
        </mxCell>
        <mxCell id="soqQz1_LplRIS5dkgfLs-3" value="datatype" style="text;html=1;align=center;verticalAlign=middle;resizable=0;points=[];autosize=1;" parent="1" vertex="1">
          <mxGeometry x="1510" y="140" width="60" height="20" as="geometry" />
        </mxCell>
        <mxCell id="soqQz1_LplRIS5dkgfLs-4" value="strings" style="text;html=1;align=center;verticalAlign=middle;resizable=0;points=[];autosize=1;" parent="1" vertex="1">
          <mxGeometry x="1490" y="110" width="50" height="20" as="geometry" />
        </mxCell>
        <mxCell id="soqQz1_LplRIS5dkgfLs-5" value="numbers" style="text;html=1;align=center;verticalAlign=middle;resizable=0;points=[];autosize=1;" parent="1" vertex="1">
          <mxGeometry x="1550" y="110" width="60" height="20" as="geometry" />
        </mxCell>
        <mxCell id="soqQz1_LplRIS5dkgfLs-6" value="1 Amounts of bits/bytes&lt;br&gt;2&amp;nbsp;" style="text;html=1;align=center;verticalAlign=middle;resizable=0;points=[];autosize=1;" parent="1" vertex="1">
          <mxGeometry x="1440" y="55" width="140" height="30" as="geometry" />
        </mxCell>
        <mxCell id="Eul-OHPvdQXQQk-2mtmN-1" value="123" style="text;html=1;strokeColor=none;fillColor=none;align=center;verticalAlign=middle;whiteSpace=wrap;rounded=0;" parent="1" vertex="1">
          <mxGeometry x="970" y="-220" width="40" height="20" as="geometry" />
        </mxCell>
        <mxCell id="Eul-OHPvdQXQQk-2mtmN-2" value="1*100 2*10 3*1" style="text;html=1;align=center;verticalAlign=middle;resizable=0;points=[];autosize=1;" parent="1" vertex="1">
          <mxGeometry x="940" y="-190" width="100" height="20" as="geometry" />
        </mxCell>
        <mxCell id="Eul-OHPvdQXQQk-2mtmN-3" value="&lt;div&gt;Variable&lt;/div&gt;&lt;div&gt;1. symbol &lt;br&gt;&lt;/div&gt;&lt;div&gt;2. value&lt;/div&gt;&lt;div&gt;3. datatype&lt;br&gt;&lt;/div&gt;" style="text;html=1;align=center;verticalAlign=middle;resizable=0;points=[];autosize=1;" parent="1" vertex="1">
          <mxGeometry x="1455" y="340" width="70" height="60" as="geometry" />
        </mxCell>
        <mxCell id="Eul-OHPvdQXQQk-2mtmN-4" value="123" style="text;html=1;align=center;verticalAlign=middle;resizable=0;points=[];autosize=1;" parent="1" vertex="1">
          <mxGeometry x="1590" y="340" width="40" height="20" as="geometry" />
        </mxCell>
        <mxCell id="TPPDd_BtJyZaWDpUWKmd-1" value="2+3" style="text;html=1;align=center;verticalAlign=middle;resizable=0;points=[];autosize=1;" parent="1" vertex="1">
          <mxGeometry x="1450" y="220" width="40" height="20" as="geometry" />
        </mxCell>
        <mxCell id="TPPDd_BtJyZaWDpUWKmd-2" value="" style="curved=1;endArrow=classic;html=1;" parent="1" edge="1">
          <mxGeometry width="50" height="50" relative="1" as="geometry">
            <mxPoint x="1405" y="276" as="sourcePoint" />
            <mxPoint x="1455" y="226" as="targetPoint" />
            <Array as="points">
              <mxPoint x="1455" y="276" />
              <mxPoint x="1405" y="226" />
            </Array>
          </mxGeometry>
        </mxCell>
        <mxCell id="TPPDd_BtJyZaWDpUWKmd-3" value="Operand" style="text;html=1;align=center;verticalAlign=middle;resizable=0;points=[];autosize=1;" parent="1" vertex="1">
          <mxGeometry x="1340" y="270" width="60" height="20" as="geometry" />
        </mxCell>
        <mxCell id="TPPDd_BtJyZaWDpUWKmd-5" value="" style="endArrow=classic;html=1;" parent="1" target="TPPDd_BtJyZaWDpUWKmd-1" edge="1">
          <mxGeometry width="50" height="50" relative="1" as="geometry">
            <mxPoint x="1475" y="300" as="sourcePoint" />
            <mxPoint x="1525" y="250" as="targetPoint" />
          </mxGeometry>
        </mxCell>
        <mxCell id="TPPDd_BtJyZaWDpUWKmd-6" value="Operator" style="text;html=1;align=center;verticalAlign=middle;resizable=0;points=[];autosize=1;" parent="1" vertex="1">
          <mxGeometry x="1440" y="300" width="60" height="20" as="geometry" />
        </mxCell>
        <mxCell id="TPPDd_BtJyZaWDpUWKmd-7" value="[]" style="text;html=1;align=center;verticalAlign=middle;resizable=0;points=[];autosize=1;" parent="1" vertex="1">
          <mxGeometry x="1570" y="190" width="20" height="20" as="geometry" />
        </mxCell>
        <mxCell id="TPPDd_BtJyZaWDpUWKmd-8" value="()" style="text;html=1;align=center;verticalAlign=middle;resizable=0;points=[];autosize=1;" parent="1" vertex="1">
          <mxGeometry x="1500" y="190" width="20" height="20" as="geometry" />
        </mxCell>
        <mxCell id="TPPDd_BtJyZaWDpUWKmd-9" value="Indexing" style="text;html=1;align=center;verticalAlign=middle;resizable=0;points=[];autosize=1;" parent="1" vertex="1">
          <mxGeometry x="1550" y="210" width="60" height="20" as="geometry" />
        </mxCell>
        <mxCell id="TPPDd_BtJyZaWDpUWKmd-10" value="Expression" style="text;html=1;align=center;verticalAlign=middle;resizable=0;points=[];autosize=1;" parent="1" vertex="1">
          <mxGeometry x="1425" y="190" width="70" height="20" as="geometry" />
        </mxCell>
        <mxCell id="1cGZDwASvERevYD2Q00i-1" value="things [2]&lt;br&gt;" style="text;html=1;align=center;verticalAlign=middle;resizable=0;points=[];autosize=1;" vertex="1" parent="1">
          <mxGeometry x="1400" y="420" width="60" height="20" as="geometry" />
        </mxCell>
        <mxCell id="1cGZDwASvERevYD2Q00i-2" value="" style="endArrow=classic;html=1;" edge="1" parent="1">
          <mxGeometry width="50" height="50" relative="1" as="geometry">
            <mxPoint x="1410" y="440" as="sourcePoint" />
            <mxPoint x="1460" y="450" as="targetPoint" />
          </mxGeometry>
        </mxCell>
        <mxCell id="1cGZDwASvERevYD2Q00i-3" value="datatype&lt;br&gt;1. amount of memory/storage required for a value&lt;br&gt;2. How it&#39;s organized for a value&amp;nbsp;" style="text;html=1;align=center;verticalAlign=middle;resizable=0;points=[];autosize=1;" vertex="1" parent="1">
          <mxGeometry x="1340" y="425" width="280" height="50" as="geometry" />
        </mxCell>
      </root>
    </mxGraphModel>
  </diagram>
</mxfile>
